<svg width="400" height="300" viewBox="0 0 400 300" fill="none" xmlns="http://www.w3.org/2000/svg">
<rect width="400" height="300" fill="#F3F4F6"/>
<path d="M200 120C180.118 120 164.286 135.832 164.286 155.714V180C164.286 199.882 180.118 215.714 200 215.714C219.882 215.714 235.714 199.882 235.714 180V155.714C235.714 135.832 219.882 120 200 120ZM200 133.571C212.353 133.571 222.143 143.361 222.143 155.714V180C222.143 192.353 212.353 202.143 200 202.143C187.647 202.143 177.857 192.353 177.857 180V155.714C177.857 143.361 187.647 133.571 200 133.571Z" fill="#9CA3AF"/>
<path d="M171.429 91.4286C162.647 91.4286 155.714 98.3613 155.714 107.143C155.714 115.925 162.647 122.857 171.429 122.857C180.211 122.857 187.143 115.925 187.143 107.143C187.143 98.3613 180.211 91.4286 171.429 91.4286Z" fill="#9CA3AF"/>
<path d="M228.571 91.4286C219.789 91.4286 212.857 98.3613 212.857 107.143C212.857 115.925 219.789 122.857 228.571 122.857C237.353 122.857 244.286 115.925 244.286 107.143C244.286 98.3613 237.353 91.4286 228.571 91.4286Z" fill="#9CA3AF"/>
<text x="200" y="250" text-anchor="middle" fill="#6B7280" font-family="Arial, sans-serif" font-size="14">Image not available</text>
</svg>
